# xmcd
#
# Track frame offsets: 
#        150
#        13521
#        38732
#        61040
#        72786
#        97702
#        114836
#        137079
#        153822
#        168571
#        179371
#        197288
#        219177
#        233038
#        248995
#
# Disc length: 3462 seconds
#
# Revision: 0
# Processed by: cddbd v1.5.2PL0 Copyright (c) Steve Scherf et al.
# Submitted via: ExactAudioCopy v0.99pb4
#
DISCID=af0d840f
DTITLE=Alabama - Angels Among Us-Hymns and Gospel Favorites-Deluxe Editi
DTITLE=on
DYEAR=2014
DGENRE=Country
TTITLE0=I Saw The Light
TTITLE1=Because He Lives
TTITLE2=Just A Closer Walk With Thee
TTITLE3=Knights Of Molite*
TTITLE4=What A Friend We Have In Jesus
TTITLE5=Church In The Wildwood
TTITLE6=The Old Rugged Cross
TTITLE7=Raising Alabama
TTITLE8=Jordan's Banks
TTITLE9=Let's All Go Down To The River
TTITLE10=Lift Me Up
TTITLE11=Angels Among Us
TTITLE12=The Last Altar Call*
TTITLE13=Oh, The Lord Has Been Good To Me*
TTITLE14=I'll Fly Away
EXTD=
EXTT0=
EXTT1=
EXTT2=
EXTT3=
EXTT4=
EXTT5=
EXTT6=
EXTT7=
EXTT8=
EXTT9=
EXTT10=
EXTT11=
EXTT12=
EXTT13=
EXTT14=
PLAYORDER=
